<?xml version="1.0" encoding="UTF-8"?>
<svg id="Vrstva_1" data-name="Vrstva 1" xmlns="http://www.w3.org/2000/svg" xmlns:xlink="http://www.w3.org/1999/xlink" viewBox="0 0 32 32">
  <defs>
    <style>
      .cls-1 {
        fill: blue;
      }

      .cls-2 {
        fill: none;
      }

      .cls-3 {
        clip-path: url(#clippath);
      }
    </style>
    <clipPath id="clippath">
      <rect class="cls-2" width="32" height="32"/>
    </clipPath>
  </defs>
  <g class="cls-3">
    <g>
      <path class="cls-1" d="M14.07,3.9s.04.02.04.03c-.04.63-.07,1.53.38,2.04.61.7,1.15-.28,1.31-.83.13-.67.58-1.1,1.26-1.2.33-.05.73-.03,1.05,0v.05c-.32.61-.63,1.58-.19,2.19.48.65,1.3-.39,1.54-.79.59-.73,1.56-.45,2.33-.18.06.02.06.05.04.1-.28.31-.54.63-.74,1.01-.38.72-.13,1.64.79,1.22l1.01-.52c.75-.26,1.52.15,2.08.66.08.07.07.09-.01.14-.62.29-1.45.8-1.5,1.56-.03.48.67.61,1.03.55l.72-.16c.91-.19,1.58.51,1.94,1.26.05.09.05.11-.04.15l-.81.18c-.87.17-1.77,1.12-.57,1.59h5.97s.05.05.05.05l.2,1.46c.01.31.03.61.04.92v1.28c-.05.1.01.26-.04.41.02.1,0,.18-.01.28-.04.54-.13,1.08-.22,1.62h-6.44s-.03.02-.03.04l.03.17c.08.23.21.43.38.61l.55.57.09.11c.43.59.27,1.33-.05,1.95l-.1.2s-.03.02-.05,0c-.5-.65-1.21-1.17-2.06-1.06-.1.01-.21.08-.25.19-.12.35-.07.72.08,1.06l.28.48c.24.41.26.86.05,1.28-.1.21-.22.41-.39.58l-.4.41s-.03.02-.04.01c0,0,0-.02-.01-.04l-.33-.7c-.28-.49-.65-.94-1.25-.95-.16,0-.3.03-.4.16-.14.17-.19.38-.2.59v.13c.02.22.04.44.11.66.27.9-.38,1.56-1.17,1.92l-.25.12c-.07-.54-.14-1.1-.42-1.6-.12-.21-.27-.37-.47-.5-.17-.11-.35-.11-.51.03-.37.33-.52.95-.58,1.45-.12.93-1.11,1.18-1.93,1.25-.01-.05-.02-.1-.01-.15.07-.27.12-.54.15-.82v-.48c-.03-.31-.14-.6-.34-.84-.1-.12-.26-.2-.41-.16-.22.06-.39.21-.52.39l-.46.65c-.13.19-.23.39-.4.55-.18.18-.43.27-.68.3-.2.02-.42.04-.62,0l-.72-.12c.53-.67.9-1.36.6-2.19-.07-.19-.22-.36-.45-.34-.36.02-.73.38-1.01.59l-.53.41c-.16.12-.35.17-.55.18-.53.03-1.09-.27-1.54-.57.65-.42,1.2-.94,1.26-1.72.09-.31-.09-.6-.41-.66-.23-.04-.45-.01-.66.08l-.84.35c-.45.19-1.15-.08-1.48-.41l-.43-.43-.13-.17c.34-.11.65-.25.95-.42.45-.25.79-.59.86-1.12.02-.15-.03-.28-.15-.37-.16-.13-.35-.17-.55-.2-.35-.05-.64.09-.95.04-.86-.06-1.4-.71-1.7-1.49H.29c-.12-.59-.2-1.17-.24-1.76l-.02-.32v-.46s-.02-.95-.02-.95l.02-.42c.04-.69.12-1.38.26-2.08h4.65c-.09-.19-.17-.39-.17-.6v-.6c.03-.27.07-.53.16-.8.45.41.95.79,1.57.86.24.03.58-.02.76-.13.3-.19.18-.66,0-.98-.15-.28-.33-.52-.53-.75-.16-.19-.26-.39-.31-.64-.07-.63.29-1.2.71-1.69.48.73.88,1.31,1.8,1.42.24.03.46-.09.48-.36v-.42c-.04-.32-.12-.61-.24-.91s-.09-.66.02-.96c.22-.5.67-.89,1.1-1.21.11.54.27,1.11.62,1.51.2.23.48.41.79.45.19.02.36-.1.45-.26.12-.21.15-.43.18-.66v-.25c.02-.16.04-.3.01-.46-.06-.4.14-.75.43-1.02s.76-.47,1.16-.58c.03,0,.05-.02.07-.03h.06ZM19.13,9.48c-.87-.42-1.8-.66-2.77-.71h-.37s0-.84,0-.84h.49c1.84.12,3.58.86,4.94,2.1l.5.49c.65.72,1.17,1.53,1.53,2.44h1.01c-.41-1.14-1.03-2.17-1.83-3.06-.06-.04-.08-.09-.12-.14l-.38-.37c-1.51-1.41-3.46-2.25-5.52-2.4h-.2s-.83-.01-.83-.01c-1.18.06-2.34.32-3.4.84l-.35.17c-.73.39-1.41.87-2.01,1.45-.12.09-.2.19-.3.3-.88.92-1.55,2.01-1.98,3.22h3c.25-.44.52-.83.85-1.19.14-.16.27-.3.44-.44,1.06-.97,2.43-1.53,3.86-1.61h.62c2.18.11,4.09,1.34,5.14,3.23h1.08c-.05-.16-.13-.29-.21-.43-.72-1.34-1.83-2.4-3.2-3.06ZM16.37,11.36c.97.09,1.87.47,2.59,1.11l.44.43s.03.07.07.07h1.07c-.45-.71-1.24-1.44-1.99-1.81l-.29-.15c-.62-.29-1.28-.45-1.96-.48h-.55s-.28.02-.28.02c-1.17.11-2.25.59-3.12,1.38-.34.29-.65.67-.89,1.05h6.77c-.59-.45-1.28-.69-1.98-.74l-.26-.02v-.87s.38,0,.38,0ZM21.27,15.09c-.13-.14-.38-.14-.51-.02-.07.06-.09.17-.09.25v.34s1.1,0,1.1,0v.61s-1.1,0-1.1,0v1.88s10.23,0,10.23,0l.06-.45.06-.59.02-.24.02-.32v-1.12s-.01-.22-.01-.22c.01-.08,0-.16-.02-.24s.01-.16-.03-.24c.02-.09,0-.17-.01-.26l-.09-.69h-7.84s0,3.77,0,3.77h-.73s0-3.77,0-3.77H6.82s0,3.77,0,3.77h-.73s0-3.78,0-3.78H1.09s-.09.77-.09.77c0,.07,0,.13-.03.2.03.09,0,.17,0,.26l-.02.32v1.28s.02.34.02.34l.02.26c0,.08.01.16.02.23l.09.71h.84s0-3.5,0-3.5h1.31c.3.01.58.09.8.27.26.22.34.51.32.84-.03.57-.45.88-1.01.94h-.66s0,1.45,0,1.45h17.23s.01-2.89.01-2.89c0-.41.26-.74.64-.85.28-.08.56-.08.84,0,.37.1.62.42.63.81.02.02.03.13,0,.13h-.71c-.02-.08,0-.19-.08-.27ZM3.58,15.67c0-.16-.09-.31-.26-.31h-.62s0,.68,0,.68h.54c.1-.01.19-.04.25-.11.07-.07.08-.14.08-.26ZM15.7,22.2c-1.47-.07-2.84-.66-3.91-1.64l-.34-.34c-.35-.38-.65-.79-.9-1.25h-1.09c.31.68.72,1.3,1.22,1.85l.52.51c1.14,1.03,2.57,1.66,4.1,1.81l.32.02h.39s0,.84,0,.84h-.49c-1.87-.12-3.65-.89-5.01-2.18l-.32-.32c-.7-.74-1.25-1.59-1.63-2.54h-1.01c.4,1.13,1.01,2.15,1.81,3.03l.63.63c1.43,1.29,3.22,2.09,5.13,2.27l.27.02.32.02h.62s.36-.02.36-.02c1.02-.08,2.02-.33,2.96-.75l.67-.34c.65-.36,1.25-.8,1.79-1.3l.4-.4c.86-.91,1.51-1.98,1.94-3.17h-3c-.34.6-.76,1.15-1.28,1.62-1,.92-2.27,1.47-3.62,1.6l-.29.02h-.57ZM20.54,18.96h-6.77c.58.43,1.26.69,1.98.73l.26.02v.73c-1.29,0-2.51-.53-3.38-1.48h-1.16c.16.24.32.46.52.67.11.15.24.26.38.39.94.84,2.09,1.32,3.35,1.39h.59c1.72-.09,3.29-1,4.24-2.44Z"/>
      <g>
        <path class="cls-1" d="M14.26,15.63c.19.65,0,1.39-.62,1.72-.24.12-.5.2-.78.2h-1.3s0-2.9,0-2.9h1.25c.32.01.62.09.88.25.28.17.47.41.56.72ZM13.42,16.56c.18-.29.15-.66-.02-.94-.13-.16-.32-.27-.53-.27h-.53s0,1.53,0,1.53h.32s.23-.03.23-.03c.2-.02.41-.11.52-.3Z"/>
        <path class="cls-1" d="M28.58,16.97c.21.07.55.06.68-.12h.75c-.18.55-.78.82-1.32.76-.32-.03-.62-.15-.84-.38-.43-.47-.39-1.2.09-1.61.39-.34,1.02-.39,1.5-.17.38.17.61.53.64.94v.27s-1.77,0-1.77,0c.04.14.13.26.27.32ZM29.33,16.21c-.1-.22-.3-.3-.51-.29-.21-.01-.41.1-.49.3h1.01Z"/>
        <path class="cls-1" d="M16.32,16.84h.74c-.13.37-.41.61-.75.71-.74.23-1.59-.14-1.7-.92-.08-.53.2-1.02.7-1.22.31-.12.65-.14.98-.04.59.17.88.67.83,1.28h-1.76c.07.32.38.4.7.34.1-.02.19-.06.25-.15ZM16.38,16.22c-.09-.22-.3-.3-.51-.3s-.41.1-.49.3h1.01Z"/>
        <path class="cls-1" d="M9.11,17.56v-.34c-.21.36-.61.45-1.01.36-.51-.12-.84-.54-.86-1.07,0-.41.17-.78.53-1s.8-.25,1.2-.13c.49.15.79.56.8,1.07v1.11s-.66,0-.66,0ZM8.57,16.98c.26-.02.44-.2.47-.44.02-.18-.03-.37-.18-.48-.21-.17-.56-.16-.75.05-.18.2-.17.5,0,.7.11.14.29.19.47.17Z"/>
        <path class="cls-1" d="M26.17,16.97c.18-.02.33-.12.4-.28h.74c-.07.33-.26.61-.56.76-.44.23-.97.22-1.4-.03-.11-.06-.2-.15-.29-.25-.39-.45-.34-1.15.1-1.54s1.16-.43,1.65-.12c.26.16.44.42.49.73h-.73c-.11-.23-.37-.34-.63-.28-.26.04-.4.26-.4.52,0,.27.18.48.46.5.04,0,.1.02.16,0Z"/>
        <path class="cls-1" d="M18.39,15.96c-.14.05-.18.18-.19.32v1.27s-.72,0-.72,0v-1.46c.05-.28.19-.52.44-.66.35-.18.78-.19,1.14-.04.28.11.46.34.5.63l.04.3h-.74c0-.1,0-.22-.08-.3-.1-.1-.26-.12-.4-.07Z"/>
        <rect class="cls-1" x="4.76" y="15.37" width=".73" height="2.19" transform="translate(-.06 .02)"/>
        <polygon class="cls-1" points="24.39 17.55 23.66 17.56 23.66 15.37 24.39 15.37 24.39 17.55"/>
        <path class="cls-1" d="M5.5,15.01c-.12.15-.3.2-.47.17-.21-.05-.36-.2-.37-.41s.14-.37.35-.43c.17-.05.36.02.48.16s.13.36,0,.52Z"/>
        <path class="cls-1" d="M24.39,15.01c-.17.21-.48.24-.68.07-.11-.09-.16-.2-.16-.33s.06-.24.17-.32c.21-.17.54-.12.69.11.1.15.1.33-.02.48Z"/>
      </g>
    </g>
  </g>
</svg>