<?xml version="1.0" encoding="UTF-8"?>
<svg id="Layer_1" data-name="Layer 1" xmlns="http://www.w3.org/2000/svg" viewBox="0 0 1000 1000">
  <defs>
    <style>
      .cls-1 {
        fill: #fff;
      }

      .cls-2 {
        fill: #0c58ae;
      }
    </style>
  </defs>
  <rect class="cls-2" x="0" y="0" width="1000" height="1000" rx="500" ry="500"/>
  <g>
    <path class="cls-1" d="M558.18,825.91c-3.27,28.9-32.02,36.72-58.44,38.67-.11-2.93.19-5.48.87-8.27,5.04-20.7,7.21-41.8-5.7-59.3-5.2-7.05-13.8-8.59-20.83-2.92-5.4,4.36-10.06,9.68-14.02,15.64l-15.21,22.88c-4.54,6.83-10.49,11.75-18.5,13.93-14.99,3.96-31.42,1.37-47.08-2.19,15.93-19.62,27.72-42.5,17.63-66.88-2.18-5.27-6.52-9.68-12.52-9.55-4.72.1-9.7,1.68-13.52,4.54l-16.03,11.97-16.31,12.89c-5.4,4.27-11.82,6.1-18.76,6.43-16.35.18-31.74-8.16-45.51-17.17,9.76-6.43,18.18-12.92,25.35-21.61,8.86-10.74,13.98-24.04,12.97-38.09-.89-12.33-18.81-15.59-30.41-10.78l-21.44,8.9c-10.37,4.3-21.09,5.61-31.76,1.57-14.46-5.51-25.8-16.68-35.99-29.12,22.77-8.05,52.17-20.42,54.76-46.86,1.57-16.08-22.63-19.72-37.39-16.45-31.61,4.13-52.8-15.96-63.42-44.71H25.84c-3.82-21.11-6.35-41.79-7.64-62.8l-.59-9.64v-35.69s.57-7.92.57-7.92c1.5-21.38,3.7-42.6,7.66-63.91l140.41.02c-8.68-18.54-5.91-40.83-.58-60.43,19.1,17.19,40.79,32.3,67.09,23.57,11.9-3.95,10.46-18.29,4.96-29.3-4.37-8.76-9.94-16.6-16.5-23.94-7.26-8.11-11.25-17.86-10.13-29.01,1.58-15.67,10.96-29.66,21.36-41.86,14.2,21.73,27.76,40.6,55.58,42.84,7.01.56,12.83-4.29,13.52-11.56,1.57-16.58-3.43-27.85-8.02-42.22-4.18-13.11-.12-26.88,7.96-37.7,7.31-9.79,16.2-17.53,26.35-25.02,3.6,17.08,8.21,33.19,19.34,46.01,5.92,6.24,13.04,11.34,21.56,12.83,6.96,1.22,12.92-2.44,15.91-8.53,7.03-14.29,5.32-31.73,5.47-47.42.07-7.61,4.51-13.99,8.97-19.78,11.36-11.85,26.88-17.78,42.14-22.44-1.04,22.96-1.22,56.67,18.46,68.84,11.14,6.89,21.48-2.17,27.5-13.19,4.18-7.65,7.43-15.62,9.74-24.1,5.92-21.76,24.85-28.92,46.24-30.24l19.28.07c-10.35,21.09-18.47,45.63-6.69,66.17,4.24,7.4,12.48,10.53,20.5,7.31,4.74-1.9,9-4.95,12.67-8.71,5.44-5.58,10.37-11.51,14.65-18.03,6.94-10.55,17.56-15.76,30.34-15.84,14.18-.1,27.98,3.37,41.56,8.91-11.46,12.43-22.96,25.79-27.5,42.21-1.65,7.44-1.51,15.03,2.03,21.69,4.26,8.02,12.84,11.12,21.43,8.37,5-1.6,9.48-4.15,14.18-6.63l18.74-9.91c14.25-7.53,32.59-3.87,46.55,3.93,7.27,4.06,13.62,8.95,20.14,14.97-20.14,9.7-44.48,24.37-47.31,48.04-1.52,12.77,12.31,19.08,24.64,19.34,8.39.17,16.65-1.29,24.79-3.83,13.64-4.26,27.9-2.17,39.38,6.53,10.9,8.26,17.73,19.38,23.95,31.57l-29.29,6.79c-7.4,1.72-14.02,5.2-20.11,9.63-10.58,7.69-17.29,21.21-8.08,30.8,4.09,4.26,8.8,7.36,14.52,9.31l178.62-.02c.63,0,1.53.53,1.82.95,4.18,23.19,6.9,45.97,7.84,69.54l-.12,40.1c-.07,23.35-3.75,46.31-7.98,69.38h-194.96c.91,12.83,9.54,21.25,17.71,29.98l14.7,15.71c5.92,7.75,8.12,17.59,7.59,27.3-.72,13.06-6.37,25.41-12.33,36.98l-1.09.2c-15.55-19.16-34.46-34.14-59.87-32.56-5.21.32-9.5,2.94-10.82,8.25-3.91,15.79,1.45,29.49,10.45,42.57,10.12,14.71,9.01,31.22-.21,46.36-4.32,7.1-9.54,13.28-15.43,19.11l-4.78,4.73c-.17.17-.73.93-.84.76l-.79-1.27-11.39-23.71c-8.89-14.79-21.29-26.99-39.32-26.01-4.78.26-8.68,3.2-11.05,7.2-7.02,11.88-4.46,27.43-.81,40.84,5.56,20.43-4.64,37.54-21.63,48.81l-19.41,10.43-1.11.51c-.23.11-.6-.96-.62-1.18l-4.83-27.19c-4.11-14.6-9.61-27.57-22.91-35.43-4.59-2.72-9.67-2.5-13.76.99-4.95,4.23-8.61,9.47-11.16,15.65-3.62,8.77-5.79,17.9-6.87,27.44ZM499.73,281.84l-.03-24.79,6.96.32c96.65,2.52,181.8,62.47,217.65,152.14l30.86-.09c-24.98-71.05-78.57-128.6-147.33-158.74-69.5-30.31-149.03-29.96-218.26.95-67.86,30.42-120.58,87.76-145.12,157.82l90.69.06c37.68-69.12,114.25-107.47,192.51-95.73,57.72,8.37,108.57,44.05,136.74,95.68h33.1c-21.01-46.22-57.56-83.66-103.2-105.93-29.48-14.28-61.39-21.62-94.57-21.69ZM499.83,360.24c41.21.44,78.45,18.38,104.42,49.21h32.97c-5.62-8.32-11.08-15.62-17.86-22.58-28.1-30.23-66.76-48.63-107.91-51.52-59.59-4.19-116.64,24.22-149.11,74.15l205.55-.04c-19.77-15.29-43.36-22.9-68.2-23.04l.13-26.19ZM682.53,480.78l-21.51.02c0-3.21-.47-5.99-2.33-8.22-1.58-1.88-4.51-2.73-7.27-2.92-5.82-.4-10.67,3.08-10.74,9.15l-.15,11.9,33.28-.02v17.98s-33.25,0-33.25,0v57s309.01-.02,309.01-.02c6.88-44.1,6.69-87.67.19-131.18-.07-.5-.18-1.13-.16-1.12s-.83,0-1.38,0h-235.71s-.09,113.7-.09,113.7l-21.6.02-.02-113.73H222.55s0,113.69,0,113.69l-21.44.02-.02-113.72H49.99c-6.26,44.39-6.42,88.24.05,132.29l25.41.04v-105.42s41.63.18,41.63.18c5.79.02,11.17,1.83,16.29,3.91,13.85,6.42,18.18,22.25,14.16,36.36-4.22,14.81-18.38,20.41-33.32,20.88l-15.52-.04.04,44.11h520.36s.23-89.06.23-89.06c.02-8.22,4.55-15.28,10.51-19.9,6.63-4.43,13.81-5.63,21.67-5.57,8.39.06,16.71,1.91,22.94,7.73s8.35,13.61,8.11,21.9ZM125.33,490.46c.32-5.64-3.69-9.95-9.09-10.03l-17.55-.26v21.37s17.68-.27,17.68-.27c5.65-.09,9.56-5.01,8.96-10.81ZM335.17,589.26l-32.98.19c35.45,77.2,111.63,127.4,197.57,127.48l.03,24.81c-99.58-.06-187.55-60.52-224.53-152.32l-30.75.07c37.64,105.95,135.67,177.86,247.64,181.02h15.1c37.8-1.02,74.91-9.99,109.02-26.31,64.97-31.2,115.16-87.34,138.81-154.75l-90.74-.04c-20.59,37.64-53.25,66.98-92.14,83.28-89.06,37.34-191.36.71-237.03-83.43ZM431.86,589.43c19.56,15.13,43.4,23.09,68.02,23.06l-.12,21.78c-39.26.2-75.85-16.27-101.89-44.88l-35.38.09c31.57,48.28,85.6,76.24,142.66,74.43,43.09-1.48,83.73-19.71,113.36-51.09,7.01-7.29,13.01-14.97,18.58-23.4h-205.23Z"/>
    <path class="cls-1" d="M446.74,488.04c6.8,21.08-.05,45.32-21.57,54.39-6.98,2.66-14.11,4.57-21.8,4.59l-37.23.08v-86.84s39.46.26,39.46.26c7.51.05,14.39,2.3,21.1,5.11,9.58,4.6,16.75,12.2,20.04,22.41ZM422.91,515.97c3.87-7.78,3.44-16.53.38-24.19-3.31-6.35-9.32-9.92-16.47-10.96l-17.44-.63v46.95s16.59-.45,16.59-.45c7-.89,13.66-4.15,16.93-10.72Z"/>
    <path class="cls-1" d="M291.78,536.62c-5.69,11.76-19.83,14.4-32.44,10.67-13.7-4.06-22.28-15.54-23.39-29.6-1.23-15.69,7.07-29.76,22.17-35.17,9.91-3.55,20.87-3.67,30.97-.32,13.26,4.4,22.35,15.98,22.43,30.09l.19,34.79-19.78.03-.15-10.5ZM290.17,514.3c0-8.97-7.27-16.24-16.24-16.24s-16.24,7.27-16.24,16.24,7.27,16.24,16.24,16.24,16.24-7.27,16.24-16.24Z"/>
    <path class="cls-1" d="M501.46,530.72c3.2-.74,5.67-1.83,7.77-4.34l22.44-.09c-7.5,21.46-33.93,27.29-53.3,19.01-12.79-5.47-20.45-17.46-20.35-31.3s8.08-25.87,21.15-31.06c10.06-4,21.44-4.23,31.73-.77,13.51,4.55,22.78,16.44,22.74,30.62l-.02,7.21h-53.1c2.14,9.08,10.75,12.33,20.95,10.71ZM511.61,507.27c-2.78-7.5-9.28-9.62-15.8-9.69-6.51.07-12.69,2.8-15.07,9.73l30.87-.05Z"/>
    <path class="cls-1" d="M891.49,530.8c3.48-.57,6.25-2.35,8.49-4.43l22.11-.08c-7.38,21.31-33.42,27.17-52.77,19.23-13.04-5.36-20.93-17.49-20.83-31.51s7.94-25.68,20.81-30.91c10.49-4.26,22.34-4.46,33.02-.56,12.39,4.52,20.65,15.36,21.65,28.48l.09,8.98h-53.18c2.48,9.24,10.85,12.16,20.61,10.79ZM902.04,507.31c-1.57-4.79-4.95-7.27-9.04-8.83-9.1-2.37-18.92-.08-21.66,8.85l30.7-.02Z"/>
    <path class="cls-1" d="M803.23,530.16c6.8.31,12.68-2.79,15.58-8.93l21.84-.05c-1.88,10.44-8.4,18.76-17.87,23.54-11.63,5.37-24.94,5.66-36.75.6-13.16-5.63-20.91-18.25-20.33-32.51.54-13.37,8.3-24.57,20.72-29.69,10.67-4.4,22.61-4.33,33.47-.5,10.7,4.29,18.52,12.75,20.74,24.64l-21.75.05c-3.18-6.67-10.12-9.53-17.18-8.8-8.39.69-14.1,7.15-14.22,15.5-.13,8.93,6.27,16.21,15.75,16.16Z"/>
    <path class="cls-1" d="M570.31,499.93c-2.98,1.74-3.68,5.04-4.11,8.14l-.02,39.03h-21.47s.03-40.58.03-40.58c1.47-17.98,13.3-26.59,30.98-26.69,5.78-.03,11.22.57,16.51,2.76,11.32,4.69,15.89,15.04,16.01,27.68h-21.53c-.11-4.18-.57-7.89-3.76-10.08-3.5-2.41-8.76-2.53-12.64-.26Z"/>
    <rect class="cls-1" x="161.01" y="481.39" width="21.59" height="65.71"/>
    <rect class="cls-1" x="730.93" y="481.39" width="21.44" height="65.71"/>
    <circle class="cls-1" cx="741.62" cy="462.77" r="13.33"/>
    <circle class="cls-1" cx="171.84" cy="462.77" r="13.33"/>
  </g>
  <rect class="cls-2" x="51.46" y="433.33" width="896" height="132.33"/>
  <path class="cls-1" d="M913.05,523.95H86.35c-2.82-15.78-2.94-31.74,0-47.9h826.7c3.79,15.47,3.57,31.47,0,47.9Z"/>
</svg>