<?xml version="1.0" encoding="UTF-8"?>
<svg id="Layer_1" data-name="Layer 1" xmlns="http://www.w3.org/2000/svg" viewBox="0 0 1000 1000">
  <defs>
    <style>
      .cls-1 {
        fill: #fff;
      }

      .cls-2 {
        fill: #0c58ae;
      }

      .cls-3 {
        fill: none;
        stroke: #fff;
        stroke-miterlimit: 10;
        stroke-width: 10px;
      }
    </style>
  </defs>
  <rect class="cls-2" x="0" y="0" width="1000" height="1000" rx="500" ry="500"/>
  <g>
    <path class="cls-1" d="M555.66,811.86c-3.13,27.65-30.64,35.13-55.92,37.01-.1-2.81.18-5.24.83-7.92,4.82-19.8,6.9-40-5.46-56.74-4.98-6.75-13.2-8.22-19.93-2.79-5.17,4.17-9.63,9.26-13.42,14.96l-14.55,21.9c-4.34,6.54-10.03,11.25-17.7,13.33-14.35,3.79-30.07,1.31-45.05-2.1,15.24-18.77,26.52-40.66,16.87-64-2.09-5.04-6.24-9.26-11.98-9.14-4.51.09-9.28,1.61-12.94,4.34l-15.34,11.45-15.6,12.34c-5.17,4.09-11.31,5.84-17.95,6.15-15.64.17-30.37-7.81-43.54-16.43,9.34-6.15,17.4-12.36,24.25-20.68,8.48-10.28,13.38-23,12.41-36.45-.85-11.8-18-14.92-29.1-10.31l-20.52,8.52c-9.92,4.12-20.18,5.37-30.39,1.5-13.84-5.27-24.69-15.96-34.44-27.87,21.78-7.7,49.92-19.54,52.4-44.84,1.5-15.39-21.65-18.87-35.78-15.74-30.24,3.95-50.52-15.27-60.68-42.78H46.28c-3.66-20.2-6.08-39.99-7.32-60.09l-.57-9.23v-34.15s.54-7.58.54-7.58c1.43-20.46,3.54-40.76,7.33-61.15l134.35.02c-8.31-17.74-5.65-39.07-.55-57.82,18.27,16.45,39.03,30.91,64.2,22.55,11.38-3.78,10-17.5,4.75-28.04-4.18-8.38-9.51-15.89-15.79-22.91-6.94-7.76-10.76-17.09-9.69-27.76,1.51-15,10.49-28.38,20.44-40.05,13.58,20.8,26.56,38.85,53.18,40.99,6.7.54,12.27-4.1,12.94-11.06,1.51-15.86-3.28-26.65-7.67-40.4-4-12.55-.11-25.72,7.62-36.07,6.99-9.36,15.5-16.77,25.21-23.95,3.45,16.35,7.85,31.76,18.5,44.03,5.66,5.97,12.48,10.85,20.63,12.28,6.66,1.17,12.36-2.33,15.23-8.16,6.72-13.68,5.09-30.36,5.23-45.37.07-7.28,4.32-13.39,8.58-18.93,10.87-11.34,25.72-17.02,40.32-21.48-1,21.97-1.17,54.23,17.66,65.87,10.66,6.59,20.55-2.08,26.31-12.62,4-7.32,7.11-14.95,9.32-23.06,5.66-20.82,23.78-27.68,44.25-28.94l18.45.07c-9.9,20.18-17.67,43.66-6.4,63.31,4.06,7.08,11.94,10.08,19.62,7,4.54-1.82,8.61-4.74,12.12-8.34,5.21-5.34,9.92-11.02,14.02-17.25,6.64-10.1,16.8-15.08,29.03-15.16,13.56-.09,26.77,3.23,39.77,8.52-10.96,11.9-21.97,24.68-26.31,40.39-1.58,7.12-1.44,14.38,1.95,20.75,4.08,7.68,12.29,10.64,20.51,8.01,4.78-1.53,9.07-3.97,13.57-6.34l17.94-9.48c13.63-7.2,31.19-3.7,44.54,3.76,6.96,3.89,13.04,8.57,19.28,14.33-19.27,9.28-42.56,23.32-45.27,45.97-1.46,12.22,11.78,18.26,23.58,18.51,8.03.17,15.93-1.24,23.72-3.67,13.05-4.07,26.7-2.08,37.68,6.25,10.43,7.91,16.96,18.54,22.92,30.21l-28.03,6.5c-7.08,1.64-13.42,4.98-19.25,9.21-10.12,7.36-16.55,20.29-7.73,29.47,3.92,4.08,8.42,7.04,13.89,8.9h170.92c.6-.01,1.47.49,1.74.89,4,22.19,6.6,43.99,7.5,66.54l-.11,38.37c-.07,22.34-3.59,44.31-7.63,66.39h-186.55c.87,12.28,9.13,20.33,16.95,28.69l14.07,15.04c5.67,7.41,7.77,16.84,7.26,26.12-.69,12.5-6.1,24.31-11.8,35.38l-1.04.19c-14.88-18.33-32.98-32.67-57.29-31.16-4.99.31-9.09,2.81-10.35,7.9-3.74,15.11,1.39,28.22,9.99,40.74,9.68,14.08,8.62,29.88-.2,44.36-4.14,6.79-9.13,12.71-14.77,18.29l-4.57,4.53c-.16.16-.7.89-.8.73l-.75-1.22-10.9-22.69c-8.51-14.15-20.37-25.83-37.62-24.89-4.57.25-8.31,3.06-10.57,6.89-6.72,11.36-4.27,26.25-.78,39.07,5.32,19.55-4.44,35.92-20.7,46.71l-18.57,9.98-1.06.49c-.22.1-.57-.92-.59-1.13l-4.63-26.02c-3.93-13.97-9.19-26.38-21.92-33.9-4.4-2.6-9.25-2.39-13.17.95-4.74,4.05-8.24,9.07-10.68,14.97-3.47,8.39-5.54,17.13-6.57,26.26ZM499.73,291.25l-.03-23.72,6.66.31c92.48,2.41,173.96,59.78,208.26,145.58l29.53-.09c-23.91-67.98-75.18-123.05-140.98-151.9-66.51-29-142.61-28.67-208.85.91-64.94,29.11-115.38,83.98-138.86,151.01l86.78.06c36.05-66.14,109.32-102.84,184.2-91.6,55.23,8.01,103.88,42.15,130.84,91.56h31.67c-20.1-44.23-55.07-80.06-98.75-101.37-28.21-13.66-58.74-20.69-90.49-20.75ZM499.83,366.27c39.43.42,75.07,17.58,99.92,47.09h31.55c-5.37-7.96-10.61-14.95-17.09-21.61-26.89-28.92-63.88-46.53-103.25-49.3-57.02-4.01-111.61,23.18-142.68,70.95l196.69-.03c-18.91-14.63-41.49-21.92-65.26-22.04l.12-25.06ZM674.64,481.61l-20.58.02c0-3.08-.45-5.73-2.23-7.86-1.51-1.8-4.32-2.61-6.96-2.79-5.57-.38-10.21,2.95-10.28,8.76l-.14,11.38,31.85-.02v17.21s-31.82,0-31.82,0v54.55s295.69-.02,295.69-.02c6.58-42.2,6.4-83.89.18-125.52-.07-.48-.17-1.08-.16-1.07s-.79,0-1.32,0h-225.54s-.08,108.8-.08,108.8l-20.67.02-.02-108.82H234.51s0,108.79,0,108.79l-20.52.02v-108.82s-144.61.01-144.61.01c-5.99,42.46-6.14,84.42.04,126.58l24.31.04v-100.87s39.83.17,39.83.17c5.54.02,10.69,1.75,15.58,3.74,13.25,6.15,17.4,21.29,13.55,34.79-4.04,14.17-17.59,19.53-31.88,19.98l-14.85-.03.04,42.21h497.91s.22-85.22.22-85.22c.02-7.87,4.35-14.62,10.06-19.04,6.35-4.24,13.21-5.39,20.73-5.33,8.02.06,15.99,1.83,21.95,7.4s7.99,13.03,7.76,20.95ZM141.47,490.88c.31-5.4-3.53-9.52-8.7-9.6l-16.79-.25v20.44s16.91-.26,16.91-.26c5.41-.08,9.15-4.79,8.57-10.34ZM342.27,585.41l-31.55.18c33.93,73.87,106.82,121.91,189.05,121.98l.02,23.74c-95.28-.06-179.46-57.91-214.85-145.75l-29.42.07c36.02,101.38,129.82,170.19,236.96,173.22h14.45c36.17-.98,71.68-9.56,104.32-25.18,62.17-29.85,110.19-83.57,132.82-148.08l-86.83-.04c-19.7,36.02-50.95,64.09-88.17,79.69-85.22,35.73-183.1.68-226.8-79.84ZM434.79,585.58c18.71,14.47,41.53,22.1,65.09,22.07l-.12,20.84c-37.57.19-72.58-15.57-97.49-42.94l-33.85.09c30.21,46.2,81.91,72.95,136.51,71.22,41.23-1.41,80.11-18.86,108.47-48.89,6.7-6.97,12.45-14.32,17.78-22.39h-196.38Z"/>
    <path class="cls-1" d="M449.03,488.56c6.51,20.17-.05,43.37-20.64,52.05-6.67,2.55-13.5,4.38-20.86,4.39l-35.62.07v-83.09s37.76.25,37.76.25c7.19.05,13.77,2.2,20.19,4.89,9.17,4.4,16.03,11.67,19.18,21.45ZM426.23,515.28c3.7-7.44,3.29-15.81.36-23.15-3.17-6.07-8.92-9.49-15.76-10.49l-16.69-.6v44.93s15.88-.43,15.88-.43c6.7-.85,13.07-3.97,16.2-10.26Z"/>
    <path class="cls-1" d="M300.75,535.04c-5.45,11.26-18.97,13.78-31.04,10.21-13.11-3.88-21.32-14.87-22.38-28.33-1.18-15.01,6.76-28.47,21.21-33.65,9.48-3.4,19.97-3.51,29.64-.3,12.69,4.21,21.38,15.29,21.46,28.8l.18,33.29-18.93.03-.15-10.04ZM299.2,513.68c0-8.58-6.96-15.54-15.54-15.54s-15.54,6.96-15.54,15.54,6.96,15.54,15.54,15.54,15.54-6.96,15.54-15.54Z"/>
    <path class="cls-1" d="M501.38,529.4c3.07-.71,5.42-1.75,7.43-4.15l21.47-.08c-7.17,20.53-32.47,26.12-51,18.19-12.24-5.23-19.57-16.71-19.48-29.95s7.73-24.75,20.23-29.72c9.63-3.83,20.51-4.05,30.36-.73,12.92,4.35,21.79,15.73,21.76,29.3l-.02,6.9h-50.81c2.05,8.69,10.29,11.8,20.05,10.25ZM511.1,506.95c-2.66-7.18-8.88-9.21-15.11-9.27-6.22.06-12.14,2.68-14.42,9.31l29.54-.05Z"/>
    <path class="cls-1" d="M874.6,529.47c3.33-.55,5.98-2.25,8.12-4.24l21.15-.07c-7.06,20.39-31.98,26-50.49,18.4-12.48-5.13-20.02-16.74-19.93-30.15s7.59-24.57,19.91-29.58c10.04-4.08,21.38-4.26,31.6-.53,11.86,4.33,19.76,14.7,20.72,27.25l.09,8.6h-50.88c2.37,8.84,10.38,11.63,19.72,10.32ZM884.68,507c-1.51-4.59-4.73-6.95-8.65-8.45-8.71-2.27-18.11-.07-20.72,8.47l29.38-.02Z"/>
    <path class="cls-1" d="M790.14,528.86c6.51.29,12.13-2.67,14.91-8.55l20.9-.05c-1.8,9.99-8.03,17.95-17.1,22.52-11.13,5.14-23.86,5.41-35.16.57-12.59-5.39-20.01-17.46-19.45-31.11.52-12.8,7.94-23.51,19.82-28.41,10.21-4.21,21.64-4.15,32.03-.48,10.23,4.11,17.72,12.2,19.85,23.58l-20.81.05c-3.04-6.38-9.69-9.12-16.44-8.42-8.02.66-13.49,6.85-13.61,14.83-.13,8.54,6,15.51,15.07,15.46Z"/>
    <path class="cls-1" d="M567.26,499.93c-2.86,1.67-3.52,4.83-3.93,7.79l-.02,37.35h-20.55s.03-38.83.03-38.83c1.41-17.2,12.72-25.44,29.65-25.54,5.53-.03,10.73.54,15.8,2.64,10.83,4.49,15.21,14.39,15.32,26.49h-20.6c-.1-4-.54-7.55-3.6-9.65-3.35-2.3-8.38-2.42-12.1-.25Z"/>
    <rect class="cls-1" x="175.62" y="482.19" width="20.66" height="62.88"/>
    <rect class="cls-1" x="720.96" y="482.19" width="20.52" height="62.88"/>
    <circle class="cls-1" cx="731.19" cy="464.38" r="12.76"/>
    <circle class="cls-1" cx="185.98" cy="464.38" r="12.76"/>
  </g>
  <rect class="cls-2" x="70.79" y="436.21" width="857.35" height="126.63"/>
  <path class="cls-3" d="M102.97,568.43c13.04-3.08,30.67-9.6,41.14-25.14,12.55-18.63,5.12-35.83,13.14-60.57,4.63-14.28,15.22-33.58,42.29-52.57"/>
  <path class="cls-3" d="M227.35,567.48c30.08-18.57,38.86-36.5,41.14-49.71,2.54-14.73-3.09-22.95-1.14-40.57,2.41-21.78,14.24-38.4,24-49.14"/>
  <path class="cls-3" d="M395.16,571.48c-5.74-4.36-18.03-14.98-24.57-33.14-5.77-16.02-4.16-29.79-3.43-35.43,1.2-9.27,3.58-14.73,7.43-25.14,3.97-10.74,9.36-26.38,14.86-46.29"/>
  <path class="cls-3" d="M611.36,573.57c4.08-1.59,24.89-10.16,34.29-33.42,7.3-18.08,5.22-38.89-3.05-53.32-6.51-11.37-13.26-12.48-19.05-25.46-5.18-11.63-5.29-23.13-4.57-31.03"/>
  <path class="cls-3" d="M768.9,578.19c8.97-19.64,9-34.58,6.1-45.71-5.25-20.11-19.77-26.5-33.52-50.29-9.93-17.17-14.15-34.23-16-48"/>
  <path class="cls-3" d="M879.25,567.48c6.55-23.14,4.41-39.9,1.14-51.05-6.04-20.62-18.11-29.44-28.57-58.67-4.27-11.93-6.45-22.17-7.62-28.95"/>
  <path class="cls-3" d="M510.41,468.02c-4.78-1.12-14.39-3.23-24.78.99-15.08,6.13-26.37,23.41-22.79,34.69,1.72,5.43,5.4,4.76,15.86,16.85,8.66,10.01,7.39,11.91,11.89,14.87,13.96,9.17,36.1-2.61,38.65-3.96,7.68-4.08,19.73-10.49,21.8-21.8,3.26-17.78-20.12-36.82-40.63-41.62Z"/>
</svg>